<!--?xml version="1.0" standalone="no"?-->
              <svg id="sw-js-blob-svg" viewBox="0 0 100 100" xmlns="http://www.w3.org/2000/svg" version="1.1">
                    <defs> 
                        <linearGradient id="sw-gradient" x1="0" x2="1" y1="1" y2="0">
                            <stop id="stop1" stop-color="rgba(248, 117, 55, 1)" offset="0%"></stop>
                            <stop id="stop2" stop-color="rgba(251, 168, 31, 1)" offset="100%"></stop>
                        </linearGradient>
                    </defs>
                <path fill="url(#sw-gradient)" d="M18.7,-30.4C23,-26.3,24.3,-19,28.4,-12.3C32.5,-5.6,39.4,0.5,40.3,7C41.2,13.4,36.2,20.2,29.5,22.6C22.8,24.9,14.4,22.8,7.8,23.3C1.1,23.7,-3.8,26.8,-10.6,28.3C-17.3,29.8,-25.9,29.8,-30.8,25.8C-35.6,21.7,-36.8,13.6,-37,5.9C-37.3,-1.8,-36.5,-9.1,-32.7,-13.9C-28.9,-18.7,-22,-21.1,-16,-24.3C-10,-27.6,-5,-31.8,1.1,-33.6C7.2,-35.3,14.4,-34.5,18.7,-30.4Z" width="100%" height="100%" transform="translate(50 50)" stroke-width="0" style="transition: all 0.3s ease 0s;"></path>
              </svg>